<svg height='300px' width='300px'  fill="#000000" xmlns="http://www.w3.org/2000/svg" data-name="Layer 1" viewBox="0 0 96 96" x="0px" y="0px"><title>Artboard 80</title><path d="M79.23,24.84l-.06-1a7.59,7.59,0,0,0-7-7l-1-.06a347.56,347.56,0,0,0-46.32,0l-1,.06a7.59,7.59,0,0,0-7,7l-.06,1a347.56,347.56,0,0,0,0,46.32l.06,1a7.57,7.57,0,0,0,7.05,7l1.9.12c7.43.48,14.92.72,22.41.72,8,0,16-.27,24-.82a7.58,7.58,0,0,0,7-7l.06-1A347.56,347.56,0,0,0,79.23,24.84ZM48,28A11,11,0,1,1,37,39,11,11,0,0,1,48,28ZM64,66a2,2,0,0,1-2,2h0a2,2,0,0,1-2-2c0-3-.07-6.15-.34-9.25l0-.26a.91.91,0,0,0-.54-.17l-.43,0a204.7,204.7,0,0,0-21.31,0l-.46,0a.87.87,0,0,0-.52.17l0,.26C36.08,59.83,36,62.94,36,66a2,2,0,0,1-4,0c0-3.17.08-6.41.35-9.64l0-.36a4.31,4.31,0,0,1,4.3-3.73l.47,0a212.25,212.25,0,0,1,21.7,0l.43,0A4.31,4.31,0,0,1,63.61,56l0,.35C63.91,59.62,64,62.86,64,66Z"></path><circle cx="48" cy="39" r="7"></circle></svg>
